<?xml version="1.0" encoding="utf-8"?>
<!-- Generator: Adobe Illustrator 23.0.0, SVG Export Plug-In . SVG Version: 6.00 Build 0)  -->
<svg version="1.1" id="图层_1" xmlns="http://www.w3.org/2000/svg" xmlns:xlink="http://www.w3.org/1999/xlink" x="0px" y="0px"
	 viewBox="0 0 128 128" style="enable-background:new 0 0 128 128;" xml:space="preserve">
<g>
	<path d="M113.2,119.1H14.7c-4.5,0-7.8-4.4-6.4-8.8l7-22.5c0.9-2.8,3.5-4.7,6.4-4.7h12.1c1.5,0,2.9,0.7,3.9,1.8
		C50.2,100,64,110.1,64,110.1s13.1-10.4,25.4-25.1c1-1.2,2.4-1.8,3.9-1.8h13c2.9,0,5.5,1.9,6.4,4.7l7,22.5c1.1,3.6-0.9,7.3-4.4,8.5
		C114.6,118.9,113.9,119.1,113.2,119.1z"/>
	<path d="M64,8.9c-19.9,0-36,16.1-36,36c0,29.2,36,56.2,36,56.2s36-29.2,36-56.2C100,25,83.9,8.9,64,8.9z M64,61.8
		c-9.9,0-18-8-18-18c0-9.9,8-18,18-18c9.9,0,18,8,18,18c0,0,0,0,0,0C82,53.7,73.9,61.8,64,61.8L64,61.8z"/>
</g>
</svg>
