<?xml version="1.0" standalone="no"?><!DOCTYPE svg PUBLIC "-//W3C//DTD SVG 1.1//EN" "http://www.w3.org/Graphics/SVG/1.1/DTD/svg11.dtd"><svg t="1620273864081" class="icon" viewBox="0 0 1024 1024" version="1.1" xmlns="http://www.w3.org/2000/svg" p-id="3642" xmlns:xlink="http://www.w3.org/1999/xlink" width="200" height="200"><defs><style type="text/css"></style></defs><path d="M512.008 1022.95c-12.439 0-24.229-4.428-50.155-14.32C352.285 966.484 259.8 898.429 194.692 811.407A507.208 507.208 0 0 1 92.284 504.832v-335.85L512.008 1.049l419.754 167.933v335.85A507.3 507.3 0 0 1 829.37 811.407c-65.108 87.022-157.609 155.278-267.177 197.223-25.91 9.892-37.716 14.32-50.139 14.32zM298.35 530.543l158.025 159.506 311.837-314.815-54.985-55.402-256.852 259.183-103.025-103.89z" p-id="3643" fill="#bfbfbf"></path><path d="M512.008 2.315L930.744 169.83v335.217A507.039 507.039 0 0 1 828.552 810.99c-65.108 86.806-157.177 154.862-266.745 197.007-25.71 9.892-37.515 14.105-49.722 14.105s-24.028-4.414-49.738-14.105c-109.43-41.945-201.713-109.985-266.806-197.007A506.93 506.93 0 0 1 93.349 505.048V169.615l418.659-167.3m-55.633 575.002l-101.56-102.393-1.542-1.543-1.544 1.543-53.38 53.936-1.543 1.543 1.544 1.466 156.559 157.948 1.543 1.466 1.543-1.466L768.212 376.73l1.543-1.544-1.543-1.466-53.518-54.09-1.467-1.543-1.543 1.544-255.37 257.716M512.007 0L91.235 168.35v336.42c0 230.572 150.016 420.418 370.202 504.909 24.86 9.475 37.716 14.321 50.57 14.321s25.495-4.846 50.572-14.321c220.016-84.491 370.186-274.337 370.186-504.847V168.41z m-55.633 580.249l256.852-259.137 53.52 53.89-310.372 313.272L299.83 530.34l53.519-54.012z" p-id="3644" fill="#bfbfbf"></path></svg>