<?xml version="1.0" encoding="utf-8"?>
<!-- Generator: Adobe Illustrator 23.0.0, SVG Export Plug-In . SVG Version: 6.00 Build 0)  -->
<svg version="1.1" id="图层_1" xmlns="http://www.w3.org/2000/svg" xmlns:xlink="http://www.w3.org/1999/xlink" x="0px" y="0px"
	 viewBox="0 0 128 128" style="enable-background:new 0 0 128 128;" xml:space="preserve">
<path d="M105.4,8H22.6c-4.3,0-7.9,3.5-7.9,7.9v45.6c0,4.3,3.5,7.8,7.9,7.8h32.9V120h17V69.3h32.9c4.3,0,7.8-3.5,7.8-7.8V15.9
	C113.3,11.5,109.7,8,105.4,8z M106.5,33.3c0,0.6-0.5,1.1-1.1,1.1H22.6c-0.6,0-1.1-0.5-1.1-1.1V15.9c0-0.6,0.5-1.1,1.1-1.1h82.8
	c0.6,0,1.1,0.5,1.1,1.1L106.5,33.3L106.5,33.3z M30.3,27.7h18.6c1.6,0,2.9-1.3,2.9-2.9v0c0-1.6-1.3-2.9-2.9-2.9H30.3
	c-1.6,0-2.9,1.3-2.9,2.9v0C27.4,26.4,28.7,27.7,30.3,27.7z"/>
</svg>
