<?xml version="1.0" encoding="utf-8"?>
<!-- Generator: Adobe Illustrator 23.0.0, SVG Export Plug-In . SVG Version: 6.00 Build 0)  -->
<svg version="1.1" id="图层_1" xmlns="http://www.w3.org/2000/svg" xmlns:xlink="http://www.w3.org/1999/xlink" x="0px" y="0px"
	 viewBox="0 0 128 128" style="enable-background:new 0 0 128 128;" xml:space="preserve">
<path d="M118.5,99.9l-47.4-79c-1.7-3.9-6.4-5.7-10.3-4c-1.8,0.8-3.2,2.2-4,4l-47.4,79C8.6,101.4,8,103,8,104.8c0,3.5,2.7,7,8.7,7
	h94.7c6,0,8.7-3.5,8.7-7C120,103,119.4,101.4,118.5,99.9L118.5,99.9z M57.9,48.5c0.1-3.4,2.9-6,6.3-5.9c3.2,0.1,5.8,2.7,5.9,5.9V74
	c-0.1,3.4-2.9,6-6.3,5.9c-3.2-0.1-5.8-2.7-5.9-5.9V48.5z M64,99.3c-3.4,0-6.1-2.8-6.1-6.1c0-3.4,2.8-6.1,6.1-6.1s6.1,2.8,6.1,6.1
	C70.1,96.6,67.4,99.3,64,99.3L64,99.3z"/>
</svg>
